<?xml version="1.0" encoding="UTF-8"?>
<svg width="334px" height="90px" viewBox="0 0 334 90" version="1.1" xmlns="http://www.w3.org/2000/svg" xmlns:xlink="http://www.w3.org/1999/xlink">
    <title>webelonglogo</title>
    <defs>
        <circle id="path-1" cx="43.5700935" cy="43.5700935" r="43.5700935"></circle>
        <rect id="path-3" x="0" y="0" width="31.0436916" height="31.0436916"></rect>
        <rect id="path-5" x="0" y="0" width="11.3282243" height="20.2600935"></rect>
        <rect id="path-7" x="0.0491651333" y="0" width="26.7464423" height="13.2888785"></rect>
        <rect id="path-9" x="0" y="0" width="33.3311215" height="21.7850467"></rect>
    </defs>
    <g id="Recipes" stroke="none" stroke-width="1" fill="none" fill-rule="evenodd">
        <g id="Desktop" transform="translate(-702.000000, -4056.000000)">
            <g id="webelonglogo" transform="translate(702.750000, 4056.750000)">
                <path d="M161.70952,57.9661192 C165.052436,57.9661192 168.09145,57.4017308 171.434365,56.4466121 L171.434365,50.5422421 C168.742667,51.3237028 165.443166,51.9315056 163.489514,51.9315056 C159.321723,51.9315056 156.847098,50.802729 156.760269,47.3729846 L171.825095,47.3729846 L171.825095,44.2905561 C171.825095,38.2559425 169.480713,33.0027897 161.188546,33.0027897 C154.111985,33.0027897 149.466635,36.9969224 149.466635,45.5061617 C149.466635,54.0588154 153.721255,57.9661192 161.70952,57.9661192 Z M164.791949,42.4237332 L156.67344,42.4237332 C156.67344,40.2964234 158.192947,38.386186 160.754401,38.386186 C164.097317,38.386186 164.748534,40.6003248 164.791949,42.4237332 Z M200.848483,57.4451453 C207.404071,57.4451453 211.571861,53.841743 211.571861,48.4583467 C211.571861,45.3325037 210.443085,42.6408056 206.492366,41.2949565 L206.492366,41.1212986 C209.357722,39.5149626 210.443085,36.7364355 210.443085,34.4354678 C210.443085,30.1374336 207.404071,26.1867154 200.501167,26.1867154 L187.303164,26.1867154 L187.303164,57.4451453 L200.848483,57.4451453 Z M199.155318,38.7769164 L194.466554,38.7769164 L194.466554,32.2647435 L199.372391,32.2647435 C201.760187,32.2647435 203.366523,33.2198621 203.366523,35.260343 C203.366523,37.9520411 201.326043,38.7769164 199.155318,38.7769164 Z M200.414338,51.3671173 L194.466554,51.3671173 L194.466554,44.8115299 L200.197266,44.8115299 C202.628477,44.8115299 204.278228,45.5495762 204.278228,47.9373729 C204.278228,49.9778537 203.192865,51.3671173 200.414338,51.3671173 Z M226.90843,57.9661192 C230.251346,57.9661192 233.29036,57.4017308 236.633275,56.4466121 L236.633275,50.5422421 C233.941577,51.3237028 230.642076,51.9315056 228.688424,51.9315056 C224.520634,51.9315056 222.046008,50.802729 221.959179,47.3729846 L237.024006,47.3729846 L237.024006,44.2905561 C237.024006,38.2559425 234.679623,33.0027897 226.387457,33.0027897 C219.310895,33.0027897 214.665545,36.9969224 214.665545,45.5061617 C214.665545,54.0588154 218.920165,57.9661192 226.90843,57.9661192 Z M229.990859,42.4237332 L221.87235,42.4237332 C221.87235,40.2964234 223.391857,38.386186 225.953312,38.386186 C229.296227,38.386186 229.947444,40.6003248 229.990859,42.4237332 Z M248.453271,57.4451453 L248.453271,24.3198925 L241.506953,24.3198925 L241.506953,57.4451453 L248.453271,57.4451453 Z M264.962031,57.9661192 C272.038593,57.9661192 277.248331,53.8851575 277.248331,45.5061617 C277.248331,37.0837514 272.038593,33.0027897 264.962031,33.0027897 C257.88547,33.0027897 252.719146,36.9969224 252.719146,45.5061617 C252.719146,54.0154009 257.88547,57.9661192 264.962031,57.9661192 Z M265.005446,52.0617491 C261.2718,52.0617491 259.839122,49.7607813 259.839122,45.5061617 C259.839122,41.2515421 261.2718,38.9071598 265.005446,38.9071598 C268.739092,38.9071598 270.128355,41.2515421 270.128355,45.5061617 C270.128355,49.7607813 268.739092,52.0617491 265.005446,52.0617491 Z M317.516071,66.8660888 C325.895066,66.8660888 331.148219,64.3914631 331.148219,58.9212379 C331.148219,53.6246706 327.631646,52.6261374 323.377026,52.6261374 L316.560952,52.6261374 C315.388761,52.6261374 314.911201,51.9315056 314.911201,51.0632159 C314.911201,50.629071 315.041445,50.1080972 315.301932,49.6305379 C316.50789,49.8315308 317.788289,49.8464192 318.350463,49.8475221 L318.471189,49.8476103 L318.471189,49.8476103 C324.679461,49.8476103 328.803837,47.3729846 328.803837,42.0330028 C328.803837,40.5134958 328.282863,39.2544757 327.414573,38.3427715 C327.571764,38.3472626 327.729883,38.3517538 327.888403,38.3561969 L328.205821,38.3650048 C329.476374,38.3998659 330.750004,38.4296005 331.756022,38.4296005 L331.756022,33.0462042 C329.932614,33.3935201 328.065791,33.5237636 326.372626,33.5237636 C322.899467,33.5237636 320.12094,33.0027897 317.99363,33.0027897 C311.134141,33.0027897 307.270252,36.5193631 307.270252,41.8593449 C307.270252,45.1154313 308.920002,47.4163991 311.438042,48.5451757 C309.57122,49.4568799 308.963417,51.1066304 308.963417,52.4958939 C308.963417,53.4944271 309.57122,54.9271051 310.83024,55.6651514 L310.83024,55.9256383 C307.83464,56.793928 306.879521,58.6607509 306.879521,60.9617187 C306.879521,64.9124369 310.222437,66.8660888 317.516071,66.8660888 Z M318.080459,45.1154313 C315.258517,45.1154313 314.259984,43.8564112 314.259984,41.7725159 C314.259984,39.6886206 315.258517,38.3427715 318.080459,38.3427715 C320.815571,38.3427715 321.857519,39.6886206 321.857519,41.7291014 C321.857519,43.9432402 320.815571,45.1154313 318.080459,45.1154313 Z M321.900934,57.7924612 C323.116539,57.7924612 324.028243,58.2700206 324.028243,59.6158696 C324.028243,61.526107 322.074592,62.1773243 318.471189,62.1773243 C315.388761,62.1773243 313.999497,61.8734229 313.999497,60.1368435 C313.999497,58.1167674 315.701519,57.7987129 317.125685,57.7925538 L321.900934,57.7924612 Z M112.192991,26.1867154 L112.192991,47.0382729 C112.192991,49.8383324 114.429541,52.0953603 117.17243,52.0953603 C119.88789,52.0953603 122.107088,49.8832472 122.1512,47.1221101 L122.151869,47.0382729 L122.151869,29.9491082 L129.154206,29.9491082 L129.154206,47.0382729 C129.154206,49.8454449 131.363254,52.0953603 134.055841,52.0953603 C136.721503,52.0953603 138.913247,49.8902182 138.956816,47.1223192 L138.957477,26.1867154 L145.959813,26.1867154 L145.959813,47.0382729 C145.959813,53.684289 140.644734,59.0976967 134.055841,59.0976967 C130.765449,59.0976967 127.792728,57.7476741 125.640971,55.5683015 C123.474666,57.7485916 120.481669,59.0976967 117.17243,59.0976967 C110.614144,59.0976967 105.297926,53.7989868 105.192257,47.2374885 L105.190654,47.0382729 L105.190654,26.1867154 L112.192991,26.1867154 Z M292.32545,33.0147715 C298.216807,33.0147715 302.966529,37.8341739 303.060934,43.7719117 L303.062366,43.9521816 L303.062366,57.4451453 L296.215637,57.4451453 L296.215637,43.9521816 C296.215637,41.6725503 294.452911,39.8615005 292.32545,39.8615005 C290.219264,39.8615005 288.470555,41.6365104 288.435791,43.8839346 L288.435264,43.9521816 L288.435264,57.4451453 L281.588535,57.4451453 L281.588535,43.9521816 C281.588535,37.9320273 286.374585,33.0147715 292.32545,33.0147715 Z" id="WeBelong" fill="#1F2042" fill-rule="nonzero"></path>
                <g id="Logo" transform="translate(0.007780, 0.000000)">
                    <mask id="mask-2" fill="white">
                        <use xlink:href="#path-1"></use>
                    </mask>
                    <use id="Oval" fill="#1F2042" xlink:href="#path-1"></use>
                    <g id="figure" mask="url(#mask-2)">
                        <g transform="translate(16.992336, 5.010561)" id="pattern">
                            <g transform="translate(-19.824393, -6.317664)">
                                <g id="Group" transform="translate(2.069579, 42.698692)">
                                    <rect id="Rectangle" fill="#FF5757" fill-rule="nonzero" x="0" y="0" width="60.0178037" height="27.1223832"></rect>
                                    <line x1="17.4233705" y1="29.8185377" x2="47.2419082" y2="0" id="Path-2" stroke="#FFD9D9" stroke-width="4.41"></line>
                                    <line x1="3.03071659" y1="29.8185377" x2="32.8492543" y2="0" id="Path-2" stroke="#FFD9D9" stroke-width="4.41"></line>
                                    <line x1="31.8160243" y1="29.8185377" x2="61.6345621" y2="0" id="Path-2" stroke="#FFD9D9" stroke-width="4.41"></line>
                                    <line x1="46.2086782" y1="29.8185377" x2="76.0272159" y2="0" id="Path-2" stroke="#FFD9D9" stroke-width="4.41"></line>
                                </g>
                                <rect id="Rectangle" fill="#28E8A3" fill-rule="nonzero" x="2.06957944" y="67.9693458" width="25.5974299" height="21.7850467"></rect>
                                <g id="Group-8" transform="translate(23.854626, 67.969346)" fill-rule="nonzero">
                                    <rect id="Rectangle" fill="#FCB003" x="0" y="0" width="11.9817757" height="21.7850467"></rect>
                                    <polygon id="Rectangle" fill="#6FBFFB" transform="translate(5.990888, 3.757921) scale(-1, 1) translate(-5.990888, -3.757921) " points="3.09584134e-15 0 11.9817757 3.75792056 3.09584134e-15 7.51584112"></polygon>
                                    <polygon id="Rectangle" fill="#6FBFFB" transform="translate(5.990888, 11.273762) scale(-1, 1) translate(-5.990888, -11.273762) " points="0 7.51584112 11.9817757 11.2737617 0 15.0316822"></polygon>
                                    <polygon id="Rectangle" fill="#6FBFFB" transform="translate(5.990888, 18.789603) scale(-1, 1) translate(-5.990888, -18.789603) " points="0 15.0316822 11.9817757 18.7896028 0 22.5475234"></polygon>
                                </g>
                                <g id="Group-7" transform="translate(35.781939, 67.969346)" fill-rule="nonzero">
                                    <rect id="Rectangle" fill="#9659FF" x="0.0544626168" y="0" width="11.9817757" height="21.7850467"></rect>
                                    <circle id="Oval" fill="#BA91F4" cx="2.69589953" cy="2.21935164" r="1.1300993"></circle>
                                    <circle id="Oval" fill="#BA91F4" cx="6.04535047" cy="2.21935164" r="1.1300993"></circle>
                                    <circle id="Oval" fill="#BA91F4" cx="9.3948014" cy="2.21935164" r="1.1300993"></circle>
                                    <circle id="Oval" fill="#BA91F4" cx="2.69589953" cy="5.56880257" r="1.1300993"></circle>
                                    <circle id="Oval" fill="#BA91F4" cx="6.04535047" cy="5.56880257" r="1.1300993"></circle>
                                    <circle id="Oval" fill="#BA91F4" cx="9.3948014" cy="5.56880257" r="1.1300993"></circle>
                                    <circle id="Oval" fill="#BA91F4" cx="2.69589953" cy="8.9182535" r="1.1300993"></circle>
                                    <circle id="Oval" fill="#BA91F4" cx="6.04535047" cy="8.9182535" r="1.1300993"></circle>
                                    <circle id="Oval" fill="#BA91F4" cx="9.3948014" cy="8.9182535" r="1.1300993"></circle>
                                    <circle id="Oval" fill="#BA91F4" cx="2.69589953" cy="12.2677044" r="1.1300993"></circle>
                                    <circle id="Oval" fill="#BA91F4" cx="6.04535047" cy="12.2677044" r="1.1300993"></circle>
                                    <circle id="Oval" fill="#BA91F4" cx="9.3948014" cy="12.2677044" r="1.1300993"></circle>
                                    <circle id="Oval" fill="#BA91F4" cx="2.69589953" cy="15.6171554" r="1.1300993"></circle>
                                    <circle id="Oval" fill="#BA91F4" cx="6.04535047" cy="15.6171554" r="1.1300993"></circle>
                                    <circle id="Oval" fill="#BA91F4" cx="9.3948014" cy="15.6171554" r="1.1300993"></circle>
                                    <circle id="Oval" fill="#BA91F4" cx="2.69589953" cy="18.9666063" r="1.1300993"></circle>
                                    <circle id="Oval" fill="#BA91F4" cx="6.04535047" cy="18.9666063" r="1.1300993"></circle>
                                    <circle id="Oval" fill="#BA91F4" cx="9.3948014" cy="18.9666063" r="1.1300993"></circle>
                                    <circle id="Oval" fill="#BA91F4" cx="2.69589953" cy="22.3160572" r="1.1300993"></circle>
                                    <circle id="Oval" fill="#BA91F4" cx="6.04535047" cy="22.3160572" r="1.1300993"></circle>
                                    <circle id="Oval" fill="#BA91F4" cx="9.3948014" cy="22.3160572" r="1.1300993"></circle>
                                </g>
                                <rect id="Rectangle" fill="#0070F7" fill-rule="nonzero" x="47.8181776" y="67.9693458" width="11.9817757" height="21.7850467"></rect>
                                <g id="Group-2" transform="translate(59.799953, 58.710701)">
                                    <mask id="mask-4" fill="white">
                                        <use xlink:href="#path-3"></use>
                                    </mask>
                                    <use id="Rectangle" fill="#28E8A3" fill-rule="nonzero" xlink:href="#path-3"></use>
                                    <path d="M15.5980929,9.93398079 C12.5300479,9.93398079 10.042906,12.4211227 10.042906,15.4891677 C10.042906,18.5572127 12.5300479,21.0443546 15.5980929,21.0443546 C18.666138,21.0443546 21.1532799,18.5572127 21.1532799,15.4891677 C21.1532799,12.4211227 18.666138,9.93398079 15.5980929,9.93398079 Z M15.5980929,11.2410836 C17.944245,11.2410836 19.8461771,13.1430156 19.8461771,15.4891677 C19.8461771,17.8353198 17.944245,19.7372518 15.5980929,19.7372518 C13.2519409,19.7372518 11.3500088,17.8353198 11.3500088,15.4891677 C11.3500088,13.1430156 13.2519409,11.2410836 15.5980929,11.2410836 Z" id="Oval" fill="#004FAD" fill-rule="nonzero" mask="url(#mask-4)"></path>
                                    <path d="M15.5980929,13.9165596 C14.7295655,13.9165596 14.0254849,14.6206403 14.0254849,15.4891677 C14.0254849,16.3576952 14.7295655,17.0617758 15.5980929,17.0617758 C16.4666204,17.0617758 17.170701,16.3576952 17.170701,15.4891677 C17.170701,14.6206403 16.4666204,13.9165596 15.5980929,13.9165596 Z M15.5980929,15.2236625 C15.7447274,15.2236625 15.8635982,15.3425332 15.8635982,15.4891677 C15.8635982,15.6358022 15.7447274,15.754673 15.5980929,15.754673 C15.4514584,15.754673 15.3325877,15.6358022 15.3325877,15.4891677 C15.3325877,15.3425332 15.4514584,15.2236625 15.5980929,15.2236625 Z" id="Oval" fill="#004FAD" fill-rule="nonzero" mask="url(#mask-4)"></path>
                                    <path d="M15.5980929,5.25019575 C9.94326488,5.25019575 5.35912098,9.83433964 5.35912098,15.4891677 C5.35912098,21.1439958 9.94326488,25.7281397 15.5980929,25.7281397 C21.252921,25.7281397 25.8370649,21.1439958 25.8370649,15.4891677 C25.8370649,9.83433964 21.252921,5.25019575 15.5980929,5.25019575 Z M15.5980929,6.55729855 C20.5310281,6.55729855 24.5299621,10.5562326 24.5299621,15.4891677 C24.5299621,20.4221028 20.5310281,24.4210369 15.5980929,24.4210369 C10.6651578,24.4210369 6.66622378,20.4221028 6.66622378,15.4891677 C6.66622378,10.5562326 10.6651578,6.55729855 15.5980929,6.55729855 Z" id="Oval" fill="#004FAD" fill-rule="nonzero" mask="url(#mask-4)"></path>
                                    <path d="M15.5980929,0.457485467 C7.29632408,0.457485467 0.566410701,7.18739884 0.566410701,15.4891677 C0.566410701,23.7909366 7.29632408,30.52085 15.5980929,30.52085 C23.8998618,30.52085 30.6297752,23.7909366 30.6297752,15.4891677 C30.6297752,7.18739884 23.8998618,0.457485467 15.5980929,0.457485467 Z M15.5980929,1.76458827 C23.1779689,1.76458827 29.3226724,7.90929179 29.3226724,15.4891677 C29.3226724,23.0690436 23.1779689,29.2137471 15.5980929,29.2137471 C8.01821702,29.2137471 1.8735135,23.0690436 1.8735135,15.4891677 C1.8735135,7.90929179 8.01821702,1.76458827 15.5980929,1.76458827 Z" id="Oval" fill="#004FAD" fill-rule="nonzero" mask="url(#mask-4)"></path>
                                    <path d="M15.5980929,-4.57485981 C4.51703652,-4.57485981 -4.46593458,4.40811129 -4.46593458,15.4891677 C-4.46593458,26.5702241 4.51703652,35.5531952 15.5980929,35.5531952 C26.6791494,35.5531952 35.6621205,26.5702241 35.6621205,15.4891677 C35.6621205,4.40811129 26.6791494,-4.57485981 15.5980929,-4.57485981 Z M15.5980929,-3.26775701 C25.9572564,-3.26775701 34.3550177,5.13000423 34.3550177,15.4891677 C34.3550177,25.8483312 25.9572564,34.2460924 15.5980929,34.2460924 C5.23892947,34.2460924 -3.15883178,25.8483312 -3.15883178,15.4891677 C-3.15883178,5.13000423 5.23892947,-3.26775701 15.5980929,-3.26775701 Z" id="Oval" fill="#004FAD" fill-rule="nonzero" mask="url(#mask-4)"></path>
                                </g>
                                <g id="Group-4" transform="translate(59.799953, 27.122383)" fill-rule="nonzero">
                                    <rect id="Rectangle" fill="#9659FF" x="0" y="0" width="10.3478972" height="31.5883178"></rect>
                                    <polygon id="Rectangle" fill="#6FBFFB" points="5.1739486 26.3235981 10.3478972 31.5883178 0 31.5883178"></polygon>
                                    <polygon id="Rectangle" fill="#6FBFFB" points="5.1739486 21.0588785 10.3478972 26.3235981 0 26.3235981"></polygon>
                                    <polygon id="Rectangle" fill="#6FBFFB" points="5.1739486 15.7941589 10.3478972 21.0588785 0 21.0588785"></polygon>
                                    <polygon id="Rectangle" fill="#6FBFFB" points="5.1739486 10.5294393 10.3478972 15.7941589 0 15.7941589"></polygon>
                                    <polygon id="Rectangle" fill="#004FAD" points="5.1739486 5.26471963 10.3478972 10.5294393 0 10.5294393"></polygon>
                                    <polygon id="Rectangle" fill="#004FAD" points="5.1739486 -3.09584134e-15 10.3478972 5.26471963 0 5.26471963"></polygon>
                                </g>
                                <g id="Group-9" transform="translate(48.471729, 15.249533)">
                                    <mask id="mask-6" fill="white">
                                        <use xlink:href="#path-5"></use>
                                    </mask>
                                    <use id="Rectangle" fill="#05D5E3" fill-rule="nonzero" xlink:href="#path-5"></use>
                                </g>
                                <rect id="Rectangle" fill="#FF6D00" fill-rule="nonzero" x="70.1478505" y="27.1223832" width="10.3478972" height="31.5883178"></rect>
                                <path d="M55.0534086,26.8583671 L59.7999533,26.8583671 L59.7999533,26.8583671 L59.7999533,32.8954206 L49.0163551,32.8954206 C49.0163551,29.561248 51.719236,26.8583671 55.0534086,26.8583671 Z" id="Rectangle" fill="#0070F7"></path>
                                <path d="M55.0534086,18.2994393 L59.7999533,18.2994393 L59.7999533,18.2994393 L59.7999533,24.3364927 L49.0163551,24.3364927 C49.0163551,21.0023201 51.719236,18.2994393 55.0534086,18.2994393 Z" id="Rectangle" fill="#0070F7" transform="translate(54.408154, 21.317966) scale(-1, 1) translate(-54.408154, -21.317966) "></path>
                                <g id="Group-6" transform="translate(80.495748, 27.122383)" fill-rule="nonzero">
                                    <rect id="Rectangle" fill="#05D5E3" x="0" y="0" width="10.3478972" height="31.5883178"></rect>
                                    <path d="M9.15461275,22.433705 L9.15461275,22.433705 L9.15461275,22.433705 L9.15461275,31.5883178 L0,31.5883178 C-6.19175667e-16,26.5323647 4.09865974,22.433705 9.15461275,22.433705 Z" id="Rectangle" fill="#0070F7"></path>
                                    <path d="M9.15461275,11.2192991 L9.15461275,11.2192991 L9.15461275,11.2192991 L9.15461275,20.3739118 L0,20.3739118 C-6.19175667e-16,15.3179588 4.09865974,11.2192991 9.15461275,11.2192991 Z" id="Rectangle" fill="#0070F7"></path>
                                    <path d="M9.15461275,0.00489312573 L9.15461275,0.00489312573 L9.15461275,0.00489312573 L9.15461275,9.15950588 L0,9.15950588 C-6.19175667e-16,4.10355286 4.09865974,0.00489312573 9.15461275,0.00489312573 Z" id="Rectangle" fill="#0070F7"></path>
                                </g>
                                <g id="Rectangle-2" transform="translate(33.004346, 32.895421)">
                                    <mask id="mask-8" fill="white">
                                        <use xlink:href="#path-7"></use>
                                    </mask>
                                    <use id="Rectangle" fill="#FCB003" fill-rule="nonzero" xlink:href="#path-7"></use>
                                    <polygon id="Rectangle" fill="#FF6D00" fill-rule="nonzero" mask="url(#mask-8)" transform="translate(6.943984, 6.671671) scale(-1, 1) translate(-6.943984, -6.671671) " points="13.5611916 0.0544626168 13.5611916 13.2888785 0.326775701 13.2888785"></polygon>
                                    <polygon id="Rectangle" fill="#FF6D00" fill-rule="nonzero" mask="url(#mask-8)" transform="translate(20.178400, 6.671671) scale(-1, 1) translate(-20.178400, -6.671671) " points="26.7956075 0.0544626168 26.7956075 13.2888785 13.5611916 13.2888785"></polygon>
                                </g>
                                <g id="Rectangle-3" transform="translate(0.000000, 24.399252)">
                                    <mask id="mask-10" fill="white">
                                        <use xlink:href="#path-9"></use>
                                    </mask>
                                    <use id="Rectangle" fill="#FCB003" fill-rule="nonzero" xlink:href="#path-9"></use>
                                    <rect id="Rectangle" fill="#FF6D00" fill-rule="nonzero" mask="url(#mask-10)" x="28.9741121" y="0" width="2.17850467" height="21.7850467"></rect>
                                    <rect id="Rectangle" fill="#FF6D00" fill-rule="nonzero" mask="url(#mask-10)" x="24.6171028" y="0" width="2.17850467" height="21.7850467"></rect>
                                    <rect id="Rectangle" fill="#FF6D00" fill-rule="nonzero" mask="url(#mask-10)" x="20.2600935" y="0" width="2.17850467" height="21.7850467"></rect>
                                    <rect id="Rectangle" fill="#FF6D00" fill-rule="nonzero" mask="url(#mask-10)" x="15.9030841" y="0" width="2.17850467" height="21.7850467"></rect>
                                    <rect id="Rectangle" fill="#FF6D00" fill-rule="nonzero" mask="url(#mask-10)" x="11.5460748" y="0" width="2.17850467" height="21.7850467"></rect>
                                    <rect id="Rectangle" fill="#FF6D00" fill-rule="nonzero" mask="url(#mask-10)" x="7.18906542" y="0" width="2.17850467" height="21.7850467"></rect>
                                    <rect id="Rectangle" fill="#FF6D00" fill-rule="nonzero" mask="url(#mask-10)" x="2.83205607" y="0" width="2.17850467" height="21.7850467"></rect>
                                </g>
                                <rect id="Rectangle" fill="#05D5E3" fill-rule="nonzero" x="0" y="2.61420561" width="33.3311215" height="21.7850467"></rect>
                                <g id="Group-5" transform="translate(59.799953, 16.774486)" fill-rule="nonzero">
                                    <rect id="Rectangle" fill="#28E8A3" x="0" y="0" width="36.1631776" height="10.3478972"></rect>
                                    <circle id="Oval" fill="#C6F6F8" cx="5.22064604" cy="5.1739486" r="3.52985835"></circle>
                                    <circle id="Oval" fill="#C6F6F8" cx="13.9711504" cy="5.1739486" r="3.52985835"></circle>
                                    <circle id="Oval" fill="#C6F6F8" cx="22.7216548" cy="5.1739486" r="3.52985835"></circle>
                                </g>
                                <g id="Rectangle-5" transform="translate(47.818178, 6.426589)" fill-rule="nonzero">
                                    <rect id="Rectangle" fill="#FF5757" x="0.108925234" y="0" width="48.036028" height="10.3478972"></rect>
                                    <rect id="Rectangle" fill="#FCB003" x="0.065206219" y="7.29799065" width="34.6382243" height="1.6338785"></rect>
                                    <rect id="Rectangle" fill="#FCB003" x="0.065206219" y="4.35700935" width="34.6382243" height="1.6338785"></rect>
                                    <rect id="Rectangle" fill="#FCB003" x="0.065206219" y="1.41602804" width="34.6382243" height="1.6338785"></rect>
                                </g>
                                <rect id="Rectangle-4" fill="#0070F7" fill-rule="nonzero" x="33.3311215" y="0" width="44.5504206" height="6.42658879"></rect>
                                <rect id="Rectangle" fill="#28E8A3" fill-rule="nonzero" x="33.3311215" y="0.0102117407" width="15.6852336" height="32.8954206"></rect>
                                <g id="Group-3" transform="translate(40.060257, 18.327500) rotate(-270.000000) translate(-40.060257, -18.327500) translate(27.560257, 14.327500)" fill="#C6F6F8" fill-rule="nonzero">
                                    <circle id="Oval" cx="3.52985835" cy="3.52985835" r="3.52985835"></circle>
                                    <circle id="Oval" cx="12.2803627" cy="3.52985835" r="3.52985835"></circle>
                                    <circle id="Oval" cx="21.0308671" cy="3.52985835" r="3.52985835"></circle>
                                </g>
                            </g>
                        </g>
                    </g>
                </g>
            </g>
        </g>
    </g>
</svg>